<svg xmlns="http://www.w3.org/2000/svg" xmlns:xlink="http://www.w3.org/1999/xlink" baseProfile="tiny" height="24" version="1.2" width="24" xml:space="preserve"><rect id="backgroundrect" width="100%" height="100%" x="0" y="0" fill="none" stroke="none"/><g class="currentLayer"><title>Layer 1</title><g id="svg_1" class="" stroke-dasharray="5,5" filter="url(#f115)"><circle cx="8.5" cy="8.50100040435791" r="2.5" id="svg_2" stroke-dasharray="5,5" filter="url(#f115)"/><path d="M16,10c-2,0-3,3-4.5,3s-1.499-1-3.5-1c-2,0-3.001,4-3.001,4H19C19,16,18,10,16,10z" id="svg_3" stroke-dasharray="5,5" filter="url(#f115)"/><path d="M20,3H4C2.897,3,2,3.897,2,5v12c0,1.103,0.897,2,2,2h16c1.103,0,2-0.897,2-2V5C22,3.897,21.103,3,20,3z M20,17H4V5h16V17z" id="svg_4" stroke-dasharray="5,5" filter="url(#f115)"/></g></g><defs><filter id="f115" xmlns:inkscape="http://www.inkscape.org/namespaces/inkscape" inkscape:label="Noise fill" inkscape:menu="ABCs" inkscape:menu-tooltip="Basic noise fill texture; adjust color in Flood" color-interpolation-filters="sRGB">
            <feTurbulence numOctaves="5" baseFrequency=".02" type="fractalNoise"/>
            <feColorMatrix result="result0" values="1 0 0 0 0 0 1 0 0 0 0 0 1 0 0 0 0 0 3 -1 "/>
            <feFlood flood-opacity="1" flood-color="#91c7c3" result="result1"/>
            <feBlend in2="SourceGraphic" mode="normal" in="result1"/>
            <feComposite operator="out" in2="result0"/>
            <feComposite operator="atop" in2="SourceGraphic"/>
        </filter></defs></svg>