<svg xmlns="http://www.w3.org/2000/svg" xmlns:xlink="http://www.w3.org/1999/xlink" width="24" height="24" style="enable-background:new 0 0 32 32;" version="1.1" xml:space="preserve"><rect id="backgroundrect" width="100%" height="100%" x="0" y="0" fill="none" stroke="none"/><g class="currentLayer"><title>Layer 1</title><g id="svg_1" class="selected" stroke="#ffffff" stroke-opacity="1" fill="#ffffff" fill-opacity="1"><path d="M1.455645203590393,22.28830575942993 h21.834678053855896 v1.485887050628662 h-23.29032325744629 v-23.774192810058594 h1.455645203590393 v4.457661151885986 h1.455645203590393 v1.485887050628662 h-1.455645203590393 v2.971774101257324 h1.455645203590393 v1.485887050628662 h-1.455645203590393 v2.971774101257324 h1.455645203590393 v1.485887050628662 h-1.455645203590393 v2.971774101257324 h1.455645203590393 v1.485887050628662 h-1.455645203590393 V22.28830575942993 zM4.366935610771179,15.601814031600952 c0,-1.2303144779205324 0.9774657542109488,-2.228830575942993 2.1834678053855896,-2.228830575942993 c0.22708065176010142,0 0.4396048514842989,0.046062498569488554 0.6477621155977251,0.10921269822120672 l1.9025282810926434,-2.5906440727710724 c-0.2307197647690774,-0.35364111804962167 -0.36682259130477923,-0.7778618710041045 -0.36682259130477923,-1.2332862520217898 c0,-1.2303144779205324 0.9789213994145396,-2.228830575942993 2.1834678053855896,-2.228830575942993 c1.2052742285728455,0 2.1834678053855896,0.998516098022461 2.1834678053855896,2.228830575942993 c0,0.23254132342338574 -0.04512500131130221,0.44948083281517054 -0.10844556766748432,0.6604767940044406 l2.5379174124598505,1.9427973186969758 c0.34789920365810406,-0.2340272104740144 0.7627580866813661,-0.37444353675842285 1.209641164183617,-0.37444353675842285 c0.09097782522439958,0 0.17613306963443762,0.01560181403160096 0.26347178184986136,0.027488910436630258 l2.5328226542472843,-5.17014399266243 c-0.3791955755352974,-0.4004465601444245 -0.6150100985169412,-0.9435382771492005 -0.6150100985169412,-1.5438366456031798 c0,-1.2303144779205324 0.9789213994145396,-2.228830575942993 2.1834678053855896,-2.228830575942993 c1.2052742285728455,0 2.1834678053855896,0.998516098022461 2.1834678053855896,2.228830575942993 c0,1.229571534395218 -0.9781935768127441,2.228830575942993 -2.1834678053855896,2.228830575942993 c-0.09097782522439958,0 -0.17540524703264243,-0.01560181403160096 -0.26347178184986136,-0.027488910436630258 l-2.532094831645489,5.17014399266243 c0.3791955755352974,0.4004465601444245 0.6128266307115556,0.9442812206745147 0.6128266307115556,1.5438366456031798 c0,1.229571534395218 -0.9781935768127441,2.228830575942993 -2.1834678053855896,2.228830575942993 c-1.2045464059710504,0 -2.1834678053855896,-0.9992590415477755 -2.1834678053855896,-2.228830575942993 c0,-0.23105543637275708 0.04512500131130221,-0.4487378892898562 0.10698992246389392,-0.6612197375297549 l-2.5371895898580554,-1.9420543751716612 c-0.34717138105630885,0.23477015399932874 -0.7627580866813661,0.37444353675842285 -1.2089133415818214,0.37444353675842285 c-0.22780847436189666,0 -0.4396048514842989,-0.04531955504417422 -0.6470342929959298,-0.10921269822120672 l-1.903256103694439,2.5891581857204438 c0.22926411956548703,0.35512700510025036 0.36682259130477923,0.7778618710041045 0.36682259130477923,1.2347721390724187 c0,1.229571534395218 -0.9774657542109488,2.228830575942993 -2.1834678053855896,2.228830575942993 S4.3662077881693815,16.83138556599617 4.366935610771179,15.601814031600952 L4.366935610771179,15.601814031600952 zM20.379032850265503,5.200604677200317 c0,0.4108477694988251 0.3253367030024531,0.742943525314331 0.7278226017951966,0.742943525314331 c0.4032137213945389,0 0.7278226017951966,-0.3320957558155061 0.7278226017951966,-0.742943525314331 s-0.32460888040065783,-0.742943525314331 -0.7278226017951966,-0.742943525314331 C20.70436955326796,4.457661151885986 20.379032850265503,4.789756907701494 20.379032850265503,5.200604677200317 zM16.012097239494324,14.11592698097229 c0,0.4108477694988251 0.3253367030024531,0.742943525314331 0.7278226017951966,0.742943525314331 c0.4032137213945389,0 0.7278226017951966,-0.3320957558155061 0.7278226017951966,-0.742943525314331 s-0.32460888040065783,-0.742943525314331 -0.7278226017951966,-0.742943525314331 C16.33743394249678,13.372983455657959 16.012097239494324,13.705079211473468 16.012097239494324,14.11592698097229 zM10.189516425132751,9.658265829086304 c0,0.4108477694988251 0.3253367030024531,0.742943525314331 0.7278226017951966,0.742943525314331 c0.4032137213945389,0 0.7278226017951966,-0.3320957558155061 0.7278226017951966,-0.742943525314331 s-0.32460888040065783,-0.742943525314331 -0.7278226017951966,-0.742943525314331 C10.514853128135206,8.915322303771973 10.189516425132751,9.247418059587481 10.189516425132751,9.658265829086304 zM5.822580814361572,15.601814031600952 c0,0.4108477694988251 0.3253367030024531,0.742943525314331 0.7278226017951966,0.742943525314331 c0.4032137213945389,0 0.7278226017951966,-0.3320957558155061 0.7278226017951966,-0.742943525314331 s-0.32460888040065783,-0.742943525314331 -0.7278226017951966,-0.742943525314331 C6.147917517364027,14.858870506286621 5.822580814361572,15.19096626210213 5.822580814361572,15.601814031600952 z" id="svg_2" stroke="#ffffff" stroke-opacity="1" fill="#ffffff" fill-opacity="1"/></g></g></svg>